<svg width="17" height="16" viewBox="0 0 17 16" fill="currentColor" xmlns="http://www.w3.org/2000/svg">
<path d="M4.71708 1.44325C4.74696 1.39894 4.79026 1.36537 4.84063 1.34746C4.89101 1.32955 4.9458 1.32825 4.99697 1.34376C5.04814 1.35926 5.09299 1.39075 5.12493 1.43359C5.15686 1.47644 5.17421 1.52839 5.17443 1.58182V14.4165C5.17443 14.4828 5.14809 14.5463 5.1012 14.5932C5.05432 14.64 4.99073 14.6663 4.92443 14.6663H4.0911C4.02491 14.6663 3.96143 14.6401 3.91456 14.5934C3.8677 14.5467 3.84128 14.4833 3.8411 14.4172V5.42691H2.13443C2.10685 5.42692 2.0798 5.41933 2.05625 5.40498C2.03271 5.39063 2.01358 5.37006 2.00097 5.34555C1.98836 5.32104 1.98276 5.29353 1.98478 5.26604C1.9868 5.23855 1.99637 5.21216 2.01243 5.18975L4.66243 1.51187C4.67283 1.4974 4.68467 1.48401 4.69776 1.4719L4.71708 1.44325ZM6.75776 3.56474C6.69145 3.56474 6.62786 3.59106 6.58098 3.63791C6.5341 3.68476 6.50776 3.7483 6.50776 3.81455V4.64725C6.50776 4.78515 6.61976 4.89706 6.75776 4.89706H11.5911C11.6574 4.89706 11.721 4.87074 11.7679 4.8239C11.8148 4.77705 11.8411 4.71351 11.8411 4.64725V3.81455C11.8411 3.7483 11.8148 3.68476 11.7679 3.63791C11.721 3.59106 11.6574 3.56474 11.5911 3.56474H6.75776ZM6.50776 8.03336C6.50776 7.89547 6.61976 7.78355 6.75776 7.78355H13.3246C13.4626 7.78355 13.5746 7.89547 13.5746 8.03336V8.86606C13.5746 8.93232 13.5483 8.99586 13.5014 9.04271C13.4545 9.08955 13.3909 9.11587 13.3246 9.11587H6.75776C6.69145 9.11587 6.62786 9.08955 6.58098 9.04271C6.5341 8.99586 6.50776 8.93232 6.50776 8.86606V8.03336ZM6.75776 12.0024C6.69145 12.0024 6.62786 12.0287 6.58098 12.0755C6.5341 12.1224 6.50776 12.1859 6.50776 12.2522V13.0849C6.50776 13.2228 6.61976 13.3347 6.75776 13.3347L14.9181 13.3347C14.9844 13.3347 15.048 13.3084 15.0948 13.2615C15.1417 13.2147 15.1681 13.1511 15.1681 13.0849V12.2522C15.1681 12.1859 15.1417 12.1224 15.0948 12.0755C15.048 12.0287 14.9844 12.0024 14.9181 12.0024L6.75776 12.0024Z" fill="currentColor"/>
</svg>
