<svg width="17" height="16" viewBox="0 0 17 16" fill="currentColor" xmlns="http://www.w3.org/2000/svg">
<path d="M4.71708 14.5567C4.74696 14.6011 4.79026 14.6346 4.84063 14.6525C4.89101 14.6704 4.9458 14.6717 4.99697 14.6562C5.04814 14.6407 5.09299 14.6093 5.12493 14.5664C5.15686 14.5236 5.17421 14.4716 5.17443 14.4182V1.58347C5.17443 1.51722 5.14809 1.45368 5.1012 1.40683C5.05432 1.35998 4.99073 1.33366 4.92443 1.33366H4.0911C4.02491 1.33366 3.96143 1.35989 3.91456 1.40659C3.8677 1.45329 3.84128 1.51666 3.8411 1.5828V10.5731H2.13443C2.10685 10.5731 2.0798 10.5807 2.05625 10.595C2.03271 10.6094 2.01358 10.6299 2.00097 10.6544C1.98836 10.679 1.98276 10.7065 1.98478 10.734C1.9868 10.7614 1.99637 10.7878 2.01243 10.8103L4.66243 14.4881C4.67283 14.5026 4.68467 14.516 4.69776 14.5281L4.71708 14.5567ZM6.75776 12.4353C6.69145 12.4353 6.62786 12.4089 6.58098 12.3621C6.5341 12.3152 6.50776 12.2517 6.50776 12.1854V11.3527C6.50776 11.2149 6.61976 11.1029 6.75776 11.1029H11.5911C11.6574 11.1029 11.721 11.1293 11.7679 11.1761C11.8148 11.223 11.8411 11.2865 11.8411 11.3527V12.1854C11.8411 12.2517 11.8148 12.3152 11.7679 12.3621C11.721 12.4089 11.6574 12.4353 11.5911 12.4353H6.75776ZM6.50776 7.96664C6.50776 8.10453 6.61976 8.21645 6.75776 8.21645H13.3246C13.4626 8.21645 13.5746 8.10453 13.5746 7.96664V7.13394C13.5746 7.06768 13.5483 7.00414 13.5014 6.95729C13.4545 6.91045 13.3909 6.88413 13.3246 6.88413H6.75776C6.69145 6.88413 6.62786 6.91045 6.58098 6.95729C6.5341 7.00414 6.50776 7.06768 6.50776 7.13394V7.96664ZM6.75776 3.99764C6.69145 3.99764 6.62786 3.97132 6.58098 3.92447C6.5341 3.87762 6.50776 3.81409 6.50776 3.74783V2.91514C6.50776 2.77724 6.61976 2.66533 6.75776 2.66533L14.9181 2.66532C14.9844 2.66532 15.048 2.69164 15.0948 2.73849C15.1417 2.78534 15.1681 2.84888 15.1681 2.91513V3.74783C15.1681 3.81408 15.1417 3.87762 15.0948 3.92446C15.048 3.97131 14.9844 3.99763 14.9181 3.99763L6.75776 3.99764Z" fill="currentColor"/>
</svg>
