<svg width="12" height="12" viewBox="0 0 12 12" fill="none" xmlns="http://www.w3.org/2000/svg">
<path d="M8 5.71552V10.5C8 10.7761 7.77614 11 7.5 11C7.22386 11 7 10.7761 7 10.5V5.5C7 5.42652 7.01585 5.35674 7.04432 5.2939C7.08231 5.19959 7.15031 5.11653 7.24423 5.06046L10 3.41546V2H2V3.4329L4.67252 5.03056C4.86366 5.10083 5 5.28449 5 5.5V8.75C5 9.02614 4.77614 9.25 4.5 9.25C4.22386 9.25 4 9.02614 4 8.75V5.73259C3.76159 5.59006 2.31562 4.79884 1.52146 4.36523C1.20009 4.18977 1 3.85362 1 3.48747C1 3.07905 1 2.51863 1 1.99996C1 1.44768 1.44772 1 2 1H10C10.5523 1 11 1.44771 11 1.99999C11 2.49044 11 2.98309 11 3.47241C11 3.8369 10.8017 4.17251 10.4824 4.34835L8 5.71552Z" fill="#1456F0"/>
</svg>
